<svg width="180" height="180" viewBox="0 0 180 180" fill="none" xmlns="http://www.w3.org/2000/svg">
<g clip-path="url(#clip0_139_23447)">
<path d="M180 0H0V180H180V0Z" fill="black"/>
<path d="M60.8297 138V42.7541H91.4444C98.157 42.7541 103.872 43.7973 108.589 45.8836C113.396 47.8792 117.115 50.8727 119.746 54.8639C122.377 58.8552 123.692 63.7989 123.692 69.6951C123.692 76.8612 121.832 82.4399 118.113 86.4311C114.394 90.3317 109.314 92.9623 102.874 94.3229L129.815 138H112.399L88.451 96.7721H75.2526V138H60.8297ZM75.2526 84.5262H91.1723C95.7078 84.5262 99.2909 83.9366 101.921 82.7574C104.552 81.5781 106.366 79.9 107.364 77.7229C108.453 75.4552 108.997 72.7792 108.997 69.6951C108.997 66.6109 108.453 63.9803 107.364 61.8033C106.366 59.5355 104.552 57.812 101.921 56.6328C99.2909 55.4535 95.7078 54.8639 91.1723 54.8639H75.2526V84.5262Z" fill="white"/>
</g>
<defs>
<clipPath id="clip0_139_23447">
<path d="M0 50C0 22.3858 22.3858 0 50 0H175C177.761 0 180 2.23858 180 5V130C180 157.614 157.614 180 130 180H5C2.23858 180 0 177.761 0 175V50Z" fill="white"/>
</clipPath>
</defs>
</svg>
