<svg width="80" height="80" viewBox="0 0 80 80" fill="none" xmlns="http://www.w3.org/2000/svg">
<path d="M40 0C17.91 0 0 17.91 0 40C0 62.09 17.91 80 40 80C62.09 80 80 62.09 80 40C80 17.91 62.09 0 40 0ZM40 75C20.699 75 5 59.301 5 40C5 20.699 20.699 5 40 5C59.301 5 75 20.699 75 40C75 59.301 59.301 75 40 75Z" fill="#B4B4BB"/>
<path d="M25 35C25 41.668 15 41.668 15 35C15 28.332 25 28.332 25 35Z" fill="#B4B4BB"/>
<path d="M65 35C65 41.668 55 41.668 55 35C55 28.332 65 28.332 65 35Z" fill="#B4B4BB"/>
<path d="M40 45C32.2617 45 25.359 49.3789 21.992 56.422C21.3982 57.6681 21.9217 59.1603 23.1678 59.7579C24.4139 60.3477 25.9061 59.8282 26.5037 58.5821C29.0349 53.2891 34.2029 50.004 39.9997 50.004C45.7965 50.004 50.9687 53.2892 53.4957 58.5821C53.9254 59.4766 54.8199 60.004 55.7535 60.004C56.1128 60.004 56.4878 59.9259 56.8316 59.7618C58.0777 59.1681 58.605 57.6759 58.0074 56.4259C54.6402 49.3829 47.7374 45.0039 39.9994 45.0039L40 45Z" fill="#B4B4BB"/>
</svg>
