<svg width="50" height="70" viewBox="0 0 50 70" fill="none" xmlns="http://www.w3.org/2000/svg">
<mask id="mask0_93_13017" style="mask-type:alpha" maskUnits="userSpaceOnUse" x="0" y="10" width="50" height="50">
<circle cx="25" cy="35" r="24.5" fill="#D9D9D9" stroke="#D91515"/>
</mask>
<g mask="url(#mask0_93_13017)">
<rect width="195.312" height="238.281" transform="translate(-70.2363 -25.8696)" fill="#B5D6F4"/>
<path d="M36.2476 62.8736L39.6072 72.5248C41.2715 77.306 44.7752 81.2253 49.3407 83.413L60.4984 88.7594L65.084 78.772L49.8116 71.0266L45.8134 62.2339C42.4485 54.8339 35.334 49.4211 27.2049 49.4211" fill="#CFA81F"/>
<path d="M36.2476 62.8736L39.6072 72.5248C41.2715 77.306 44.7752 81.2253 49.3407 83.413L60.4984 88.7594L65.084 78.772L49.8116 71.0266L45.8134 62.2339C42.4485 54.8339 35.334 49.4211 27.2049 49.4211" stroke="#000716" stroke-width="2" stroke-linecap="round" stroke-linejoin="round"/>
<path fill-rule="evenodd" clip-rule="evenodd" d="M24.8254 70.1761V71.0944H27.6655V70.1761C27.6655 70.0298 27.7608 69.8972 27.9002 69.853C28.6315 69.6183 29.2981 69.2305 29.8798 68.7033C29.9444 68.6455 30.026 68.6149 30.1076 68.6149C30.1655 68.6149 30.2233 68.6285 30.2777 68.6591L31.077 69.1217L32.4988 66.6625L31.7063 66.2034C31.577 66.1285 31.5124 65.9789 31.543 65.836C31.6246 65.4517 31.6654 65.0673 31.6654 64.6898C31.6654 64.3122 31.6246 63.9279 31.543 63.5435C31.5124 63.3973 31.577 63.251 31.7063 63.1762L32.4988 62.717L31.077 60.2579L30.2777 60.7171C30.2233 60.7477 30.1655 60.7613 30.1076 60.7613C30.026 60.7613 29.9444 60.7307 29.8798 60.6729C29.2981 60.1456 28.6315 59.7579 27.9002 59.5232C27.7608 59.479 27.6655 59.3463 27.6655 59.2001V58.2817H24.8254V59.2001C24.8254 59.3463 24.7302 59.479 24.5907 59.5232C23.8595 59.7579 23.1928 60.1456 22.6112 60.6729C22.5466 60.7307 22.4649 60.7613 22.3833 60.7613C22.3255 60.7613 22.2677 60.7477 22.2132 60.7171L21.4139 60.2545L19.9922 62.7136L20.7847 63.1728C20.9139 63.2476 20.9786 63.3973 20.948 63.5401C20.8663 63.9211 20.8255 64.3054 20.8255 64.6864C20.8255 65.0673 20.8663 65.4517 20.948 65.8326C20.9786 65.9789 20.9139 66.1251 20.7847 66.2L19.9922 66.6591L21.4139 69.1217L22.2132 68.6591C22.2677 68.6285 22.3255 68.6149 22.3833 68.6149C22.4649 68.6149 22.5466 68.6455 22.6112 68.7033C23.1928 69.2305 23.8595 69.6183 24.5907 69.853C24.7302 69.8972 24.8254 70.0298 24.8254 70.1761ZM23.5574 64.6123C23.5574 66.1214 24.7858 67.3467 26.2918 67.3467C27.8008 67.3467 29.0262 66.1214 29.0262 64.6123C29.0262 63.1033 27.8008 61.8779 26.2918 61.8779C24.7827 61.8779 23.5574 63.1033 23.5574 64.6123Z" fill="#D3E7F9" stroke="#000716" stroke-width="2" stroke-linejoin="round"/>
<path d="M39.7412 62.2792H51.5429C54.722 62.2792 57.8504 61.4815 60.6413 59.9591L76.9395 51.0688L70.9795 41.6929L53.7162 51.0688L42.2074 50.2535C42.2074 50.2535 30.0819 49.2344 27.6158 49.2344" fill="#CFA81F"/>
<path d="M39.7412 62.2792H51.5429C54.722 62.2792 57.8504 61.4815 60.6413 59.9591L76.9395 51.0688L70.9795 41.6929L53.7162 51.0688L42.2074 50.2535C42.2074 50.2535 30.0819 49.2344 27.6158 49.2344" stroke="#000716" stroke-width="2" stroke-linecap="round" stroke-linejoin="round"/>
<path d="M43.3676 94.8503C43.98 94.8503 44.3047 94.3245 44.1814 93.7619C42.8374 85.6863 40.2725 71.7488 40.2725 71.7488L41.9413 66.9018C42.5538 65.0837 42.5127 63.0658 41.7769 61.2884L39.9437 56.8084C38.6407 52.8093 35.3032 49.8457 30.8229 49.8457H20.6869C15.5162 49.8457 11.6073 53.7795 11.1181 58.7855C10.2221 68.1941 9.28493 80.5173 6.679 93.5581C6.55569 94.1247 6.88451 94.6873 7.49284 94.6873L43.3594 94.8503H43.3676Z" fill="#CFA81F"/>
<path d="M11.126 56.7637C10.1478 66.9794 9.21465 80.8844 6.68681 93.762C6.5635 94.3287 6.89232 94.8912 7.50065 94.8912L43.3672 95.2133C43.9796 95.2133 44.3043 94.6467 44.181 94.0841L40.2722 71.5369L41.045 69.5598C42.5123 65.8461 42.2657 61.6473 40.3544 58.0926" stroke="#000716" stroke-width="2" stroke-linecap="round" stroke-linejoin="round"/>
<path d="M11.3796 65.948L6.34188 70.5525C2.84009 73.7531 -1.73238 75.5278 -6.47647 75.5278H-21.5029L-21.5029 64.5213H-4.44511L2.41023 58.2521C8.22575 52.9338 15.6244 49.2344 23.505 49.2344" fill="#CFA81F"/>
<path d="M11.3796 65.948L6.34188 70.5525C2.84009 73.7531 -1.73238 75.5278 -6.47647 75.5278H-21.5029L-21.5029 64.5213H-4.44511L2.41023 58.2521C8.22575 52.9338 15.6244 49.2344 23.505 49.2344" stroke="#000716" stroke-width="2" stroke-linecap="round" stroke-linejoin="round"/>
<path d="M31.2132 50.7964V45.5323C31.2132 45.5323 38.5882 47.0717 38.6782 40.4652C38.7167 37.6342 38.569 35.0339 37.6356 32.0059C36.4924 28.2961 34.6192 25.3867 28.9119 25.3867C24.5832 25.4037 21.0402 28.9208 21.0402 33.2044V50.7964C21.0402 53.5745 23.318 55.8275 26.1267 55.8275C28.9354 55.8275 31.2132 53.5745 31.2132 50.7964V50.7964Z" fill="#685A4F" stroke="#000716" stroke-width="2" stroke-linecap="round" stroke-linejoin="round"/>
<path d="M31.2129 45.5344C31.2129 45.5344 28.7788 45.1702 26.6059 44.3401C26.4175 44.2681 26.2805 44.5201 26.4432 44.6366L31.2129 48.0499V45.5322" fill="#000716"/>
<path d="M31.2129 45.5344C31.2129 45.5344 28.7788 45.1702 26.6059 44.3401C26.4175 44.2681 26.2805 44.5201 26.4432 44.6366L31.2129 48.0499V45.5322" stroke="#000716" stroke-width="2" stroke-linecap="round" stroke-linejoin="round"/>
<g clip-path="url(#clip0_93_13017)">
<path d="M35.3974 34.8473C35.1633 34.8473 34.9735 34.616 34.9735 34.3306C34.9735 34.0453 35.1633 33.814 35.3974 33.814C35.6315 33.814 35.8213 34.0453 35.8213 34.3306C35.8213 34.616 35.6315 34.8473 35.3974 34.8473Z" fill="#000716"/>
<path d="M32.3573 33.1321C32.9032 34.2882 33.3014 35.4338 34.969 36.5645C35.3266 36.808 35.166 37.3882 34.7742 37.5724L33.9672 37.9493" stroke="#000716" stroke-width="2" stroke-linecap="square" stroke-linejoin="round"/>
<path d="M32.5482 40.4238C32.5482 40.4238 31.3151 40.2199 30.3746 38.9733" stroke="#000716" stroke-width="2" stroke-linecap="square" stroke-linejoin="round"/>
<path d="M31.521 35.2129C31.247 34.8732 30.4523 34.3976 29.4658 35.2129" stroke="#000716" stroke-width="1.5"/>
</g>
<path d="M37.5925 30.2184C38.3434 29.7356 38.5126 28.4836 37.7865 27.9639C41.0663 26.4418 38.9375 23.2054 36.3343 24.6211C41.223 20.9181 32.9224 15.8609 31.6022 20.5908C32.6501 16.0123 24.8322 14.347 24.9848 20.0343C22.8767 15.4026 13.0125 17.6857 17.0638 23.2258C10.9332 20.0998 7.92151 27.7021 13.4704 29.5351C9.42734 28.1971 7.57084 31.2618 7.48008 33.2462C7.33981 36.3968 10.5165 37.6406 12.4184 37.702C5.68133 37.4811 7.60385 44.5841 11.2962 44.2363C9.73264 48.0129 16.3872 50.4024 17.4351 45.648C20.0548 50.1774 25.3685 45.648 20.2652 41.8346C21.1481 42.4892 22.0672 42.1004 22.8892 40.4698C23.5058 38.6354 22.4782 37.0048 22.4782 37.0048C21.4506 36.1895 25.3554 35.4434 25.5954 35.4434C26.862 34.3878 28.2647 30.4885 28.244 28.8477C28.277 30.7831 32.5264 31.3723 32.2995 29.0277C32.349 29.6742 32.8193 30.2716 33.434 30.4803C34.2467 30.7544 35.2987 29.2937 35.2987 29.2937C35.2987 29.2937 36.7097 30.7667 37.5884 30.2061V30.2184H37.5925Z" fill="white" stroke="#000716" stroke-width="2" stroke-miterlimit="10" stroke-linejoin="round"/>
<path d="M23.7408 37.7451C21.7049 36.3751 21.5636 35.1809 21.722 34.5054C21.8269 34.0544 22.1866 33.6965 22.6404 33.5822C23.1927 33.4446 23.8114 33.5885 24.2781 33.9655C25.3421 34.823 25.6396 35.9982 25.6396 35.9982" fill="#685A4F"/>
<path d="M23.7408 37.7451C21.7049 36.3751 21.5636 35.1809 21.722 34.5054C21.8269 34.0544 22.1866 33.6965 22.6404 33.5822C23.1927 33.4446 23.8114 33.5885 24.2781 33.9655C25.3421 34.823 25.6396 35.9982 25.6396 35.9982" stroke="#000716" stroke-width="2" stroke-linecap="square" stroke-linejoin="round"/>
<path d="M23.773 40.2661C23.6947 40.2661 23.6213 40.2624 23.5527 40.2554C23.3324 40.2327 24.2135 40.2327 23.9932 40.2554C23.9246 40.2624 23.8512 40.2661 23.773 40.2661Z" fill="#CFA81F" stroke="#000716" stroke-width="2" stroke-linejoin="round"/>
<path d="M39.7412 62.2792H51.5429C54.722 62.2792 57.8504 61.4815 60.6413 59.9591L76.9395 51.0688L70.9795 41.6929L53.7162 51.0688L42.2074 50.2535C42.2074 50.2535 30.0819 49.2344 27.6158 49.2344" fill="#CFA81F"/>
<path d="M39.7412 62.2792H51.5429C54.722 62.2792 57.8504 61.4815 60.6413 59.9591L76.9395 51.0688L70.9795 41.6929L53.7162 51.0688L42.2074 50.2535C42.2074 50.2535 30.0819 49.2344 27.6158 49.2344" stroke="#000716" stroke-width="2" stroke-linecap="round" stroke-linejoin="round"/>
<path d="M43.3676 94.8503C43.98 94.8503 44.3047 94.3245 44.1814 93.7619C42.8374 85.6863 40.2725 71.7488 40.2725 71.7488L41.9413 66.9018C42.5538 65.0837 42.5127 63.0658 41.7769 61.2884L39.9437 56.8084C38.6407 52.8093 35.3032 49.8457 30.8229 49.8457H20.6869C15.5162 49.8457 11.6073 53.7795 11.1181 58.7855C10.2221 68.1941 9.28493 80.5173 6.679 93.5581C6.55569 94.1247 6.88451 94.6873 7.49284 94.6873L43.3594 94.8503H43.3676Z" fill="#CFA81F"/>
<path d="M11.126 56.7637C10.1478 66.9794 9.21465 80.8844 6.68681 93.762C6.5635 94.3287 6.89232 94.8912 7.50065 94.8912L43.3672 95.2133C43.9796 95.2133 44.3043 94.6467 44.181 94.0841L40.2722 71.5369L41.045 69.5598C42.5123 65.8461 42.2657 61.6473 40.3544 58.0926" stroke="#000716" stroke-width="2" stroke-linecap="round" stroke-linejoin="round"/>
<path d="M31.2132 50.7964V45.5323C31.2132 45.5323 38.5882 47.0717 38.6782 40.4652C38.7167 37.6342 38.569 35.0339 37.6356 32.0059C36.4924 28.2961 34.6192 25.3867 28.9119 25.3867C24.5832 25.4037 21.0402 28.9208 21.0402 33.2044V50.7964C21.0402 53.5745 23.318 55.8275 26.1267 55.8275C28.9354 55.8275 31.2132 53.5745 31.2132 50.7964V50.7964Z" fill="#685A4F" stroke="#000716" stroke-width="2" stroke-linecap="round" stroke-linejoin="round"/>
<path d="M31.2129 45.5344C31.2129 45.5344 28.7788 45.1702 26.6059 44.3401C26.4175 44.2681 26.2805 44.5201 26.4432 44.6366L31.2129 48.0499V45.5322" fill="#000716"/>
<path d="M31.2129 45.5344C31.2129 45.5344 28.7788 45.1702 26.6059 44.3401C26.4175 44.2681 26.2805 44.5201 26.4432 44.6366L31.2129 48.0499V45.5322" stroke="#000716" stroke-width="2" stroke-linecap="round" stroke-linejoin="round"/>
<g clip-path="url(#clip1_93_13017)">
<path d="M35.3974 34.8473C35.1633 34.8473 34.9735 34.616 34.9735 34.3306C34.9735 34.0453 35.1633 33.814 35.3974 33.814C35.6315 33.814 35.8213 34.0453 35.8213 34.3306C35.8213 34.616 35.6315 34.8473 35.3974 34.8473Z" fill="#000716"/>
<path d="M32.3573 33.1321C32.9032 34.2882 33.3014 35.4338 34.969 36.5645C35.3266 36.808 35.166 37.3882 34.7742 37.5724L33.9672 37.9493" stroke="#000716" stroke-width="2" stroke-linecap="square" stroke-linejoin="round"/>
<path d="M32.5482 40.4238C32.5482 40.4238 31.3151 40.2199 30.3746 38.9733" stroke="#000716" stroke-width="2" stroke-linecap="square" stroke-linejoin="round"/>
<path d="M31.521 35.2129C31.247 34.8732 30.4523 34.3976 29.4658 35.2129" stroke="#000716" stroke-width="1.5"/>
</g>
<path d="M37.5925 30.2184C38.3434 29.7356 38.5126 28.4836 37.7865 27.9639C41.0663 26.4418 38.9375 23.2054 36.3343 24.6211C41.223 20.9181 32.9224 15.8609 31.6022 20.5908C32.6501 16.0123 24.8322 14.347 24.9848 20.0343C22.8767 15.4026 13.0125 17.6857 17.0638 23.2258C10.9332 20.0998 7.92151 27.7021 13.4704 29.5351C9.42734 28.1971 7.57084 31.2618 7.48008 33.2462C7.33981 36.3968 10.5165 37.6406 12.4184 37.702C5.68133 37.4811 7.60385 44.5841 11.2962 44.2363C9.73264 48.0129 16.3872 50.4024 17.4351 45.648C20.0548 50.1774 25.3685 45.648 20.2652 41.8346C21.1481 42.4892 22.0672 42.1004 22.8892 40.4698C23.5058 38.6354 22.4782 37.0048 22.4782 37.0048C21.4506 36.1895 25.3554 35.4434 25.5954 35.4434C26.862 34.3878 28.2647 30.4885 28.244 28.8477C28.277 30.7831 32.5264 31.3723 32.2995 29.0277C32.349 29.6742 32.8193 30.2716 33.434 30.4803C34.2467 30.7544 35.2987 29.2937 35.2987 29.2937C35.2987 29.2937 36.7097 30.7667 37.5884 30.2061V30.2184H37.5925Z" fill="white" stroke="#000716" stroke-width="2" stroke-miterlimit="10" stroke-linejoin="round"/>
<path d="M23.7408 37.7451C21.7049 36.3751 21.5636 35.1809 21.722 34.5054C21.8269 34.0544 22.1866 33.6965 22.6404 33.5822C23.1927 33.4446 23.8114 33.5885 24.2781 33.9655C25.3421 34.823 25.6396 35.9982 25.6396 35.9982" fill="#685A4F"/>
<path d="M23.7408 37.7451C21.7049 36.3751 21.5636 35.1809 21.722 34.5054C21.8269 34.0544 22.1866 33.6965 22.6404 33.5822C23.1927 33.4446 23.8114 33.5885 24.2781 33.9655C25.3421 34.823 25.6396 35.9982 25.6396 35.9982" stroke="#000716" stroke-width="2" stroke-linecap="square" stroke-linejoin="round"/>
<path d="M23.773 40.2661C23.6947 40.2661 23.6213 40.2624 23.5527 40.2554C23.3324 40.2327 24.2135 40.2327 23.9932 40.2554C23.9246 40.2624 23.8512 40.2661 23.773 40.2661Z" fill="#CFA81F" stroke="#000716" stroke-width="2" stroke-linejoin="round"/>
<path d="M21.0391 48.0269V50.7948C21.0391 53.5729 23.3169 55.8259 26.1256 55.8259C28.9343 55.8259 31.2121 53.5729 31.2121 50.7948V48.0269H21.0391Z" fill="#CFA81F" stroke="#000716" stroke-width="2" stroke-linecap="round" stroke-linejoin="round"/>
<path d="M21.0391 50.7948V48.0269H31.2121V50.7948" stroke="#000716" stroke-width="2" stroke-linecap="round" stroke-linejoin="round"/>
</g>
<defs>
<clipPath id="clip0_93_13017">
<rect width="14.7971" height="10.1913" fill="white" transform="translate(25.5605 31.9092)"/>
</clipPath>
<clipPath id="clip1_93_13017">
<rect width="14.7971" height="10.1913" fill="white" transform="translate(25.5605 31.9092)"/>
</clipPath>
</defs>
</svg>
