<svg width="50" height="70" viewBox="0 0 50 70" fill="none" xmlns="http://www.w3.org/2000/svg">
<mask id="mask0_93_12511" style="mask-type:alpha" maskUnits="userSpaceOnUse" x="0" y="10" width="50" height="50">
<circle cx="25" cy="35" r="24.5" fill="#D9D9D9" stroke="#D91515"/>
</mask>
<g mask="url(#mask0_93_12511)">
<rect width="195.312" height="238.281" transform="translate(-65.5 -32.0784)" fill="#B5D6F4"/>
<path d="M14.4672 84.6801V51.7053H-7.77718V84.6801H-40.752V106.924H-7.77718L-7.77718 139.899H14.4672L14.4672 106.924H47.4409V84.6801H14.4672Z" fill="#80A1FF" stroke="#000716" stroke-width="2" stroke-linejoin="round"/>
<path d="M31.437 55.93L34.7943 65.6546C36.445 70.4359 39.9341 74.3616 44.4885 76.5621L55.591 81.9262L60.1582 71.8961L44.9469 64.1178L40.9277 55.2056C37.6003 47.8275 30.5242 42.4202 22.4305 42.4202" fill="#4066DF"/>
<path d="M31.437 55.93L34.7943 65.6546C36.445 70.4359 39.9341 74.3616 44.4885 76.5621L55.591 81.9262L60.1582 71.8961L44.9469 64.1178L40.9277 55.2056C37.6003 47.8275 30.5242 42.4202 22.4305 42.4202" stroke="#000716" stroke-width="2" stroke-linecap="round" stroke-linejoin="round"/>
<path d="M2.79951 85.2692C2.19609 85.2692 2.45349 84.4008 2.56863 83.8246C4.76171 70.5766 5.15563 61.0675 6.05757 51.5429C6.53732 46.484 10.8764 43.239 16.0876 43.239H26.2967C31.5036 43.239 35.1711 46.5074 35.9173 51.5302C37.4867 62.0903 37.3003 70.129 39.3591 84.3169C39.4871 84.8847 39.4632 85.4542 38.8684 85.4542L2.79951 85.2692Z" fill="#4066DF"/>
<line y1="-1" x2="21.3439" y2="-1" transform="matrix(-0.240895 -0.970551 -0.983528 0.180753 21.7139 65.8538)" stroke="#000716" stroke-width="2"/>
<line y1="-1" x2="21.3439" y2="-1" transform="matrix(0.240895 -0.970551 0.983528 0.180753 22.3682 65.8538)" stroke="#000716" stroke-width="2"/>
<path d="M12.3981 57.5005C11.6786 63.2561 10.7633 70.668 10.7633 70.668L30.0046 71.4868V82.5402L14.1166 81.8495C4.99981 81.4531 -1.76021 73.2385 -0.394622 64.2159L0.32653 59.4511C1.75707 49.9994 9.59649 42.4202 19.1559 42.4202" fill="#4066DF"/>
<path d="M12.3981 57.5005C11.6786 63.2561 10.7633 70.668 10.7633 70.668L30.0046 71.4868V82.5402L14.1166 81.8495C4.99981 81.4531 -1.76021 73.2385 -0.394622 64.2159L0.32653 59.4511C1.75707 49.9994 9.59649 42.4202 19.1559 42.4202" stroke="#000716" stroke-width="2" stroke-linecap="round" stroke-linejoin="round"/>
<path d="M12.3642 46.7034L20.8228 48.6771C21.0084 48.7204 21.2016 48.7199 21.3869 48.6757L29.2897 46.7898C32.0988 46.1194 32.2645 42.1849 29.5217 41.2807L20.6221 38.3468C20.537 38.3187 20.4451 38.3193 20.3604 38.3485L12.0811 41.2035C9.36306 42.1407 9.56423 46.0501 12.3642 46.7034Z" fill="#4066DF" stroke="#000716" stroke-width="2"/>
<path d="M13.7368 43.0115C12.5086 43.0115 12.0042 44.6893 17.1259 45.7386" stroke="#000716" stroke-width="2"/>
<path d="M28.2706 43.0115C29.4989 43.0115 30.1127 44.649 25.405 45.6725" stroke="#000716" stroke-width="2"/>
<g clip-path="url(#clip0_93_12511)">
<path fill-rule="evenodd" clip-rule="evenodd" d="M16.8538 22.5186C14.9803 27.0443 18.0405 37.1439 18.0405 37.1439L18.123 37.4601L17.0163 43.4753C16.5115 46.2192 18.3333 48.855 21.0847 49.3612C23.836 49.8673 26.4766 48.0526 26.9814 45.3087L27.938 40.1095C27.938 40.1095 34.8825 42.959 36.1711 36.4501C36.7233 33.6608 37.0511 31.066 36.687 27.9071C36.4422 25.7816 35.9379 23.8549 34.6069 22.3794C33.9938 21.445 31.8087 18.5312 27.8023 17.4565C23.7654 16.3736 18.4554 18.6507 16.8538 22.5186Z" fill="#885E4D"/>
<path d="M18.0405 37.1439L19.008 36.8913C19.0048 36.8788 19.0012 36.8663 18.9975 36.8539L18.0405 37.1439ZM16.8538 22.5186L15.9299 22.136L15.9299 22.1361L16.8538 22.5186ZM18.123 37.4601L19.1065 37.641C19.133 37.4971 19.1275 37.3491 19.0906 37.2075L18.123 37.4601ZM17.0163 43.4753L16.0328 43.2944L17.0163 43.4753ZM26.9814 45.3087L25.9979 45.1277L26.9814 45.3087ZM27.938 40.1095L28.3176 39.1843C28.0388 39.0699 27.7233 39.0874 27.4588 39.2318C27.1943 39.3762 27.009 39.6321 26.9545 39.9285L27.938 40.1095ZM36.1711 36.4501L35.1902 36.2559L35.1901 36.2559L36.1711 36.4501ZM36.687 27.9071L35.6936 28.0215L35.6936 28.0216L36.687 27.9071ZM34.6069 22.3794L33.7709 22.928C33.7989 22.9707 33.8302 23.0112 33.8644 23.0492L34.6069 22.3794ZM27.8023 17.4565L28.0614 16.4907L27.8023 17.4565ZM18.0405 37.1439C18.9975 36.8539 18.9975 36.854 18.9975 36.8541C18.9975 36.854 18.9975 36.854 18.9975 36.854C18.9975 36.8539 18.9974 36.8536 18.9973 36.8532C18.997 36.8523 18.9966 36.8508 18.9959 36.8488C18.9947 36.8447 18.9928 36.8381 18.9901 36.8293C18.9848 36.8116 18.9768 36.7846 18.9663 36.7487C18.9453 36.6768 18.9144 36.5696 18.8754 36.4308C18.7974 36.153 18.6874 35.7492 18.561 35.2497C18.3078 34.2495 17.99 32.8719 17.7301 31.3591C17.4697 29.8429 17.2711 28.2114 17.2487 26.6983C17.2261 25.1667 17.3863 23.8468 17.7778 22.9011L16.8538 22.5186L15.9299 22.1361C15.3846 23.4532 15.2248 25.0929 15.2489 26.7279C15.2734 28.3812 15.4886 30.1233 15.759 31.6977C16.03 33.2754 16.3602 34.7056 16.6222 35.7405C16.7533 36.2586 16.8678 36.6791 16.9498 36.9714C16.9909 37.1175 17.0238 37.2317 17.0467 37.31C17.0582 37.3492 17.0671 37.3794 17.0733 37.4002C17.0764 37.4106 17.0788 37.4187 17.0805 37.4243C17.0814 37.4271 17.082 37.4293 17.0825 37.4309C17.0828 37.4317 17.083 37.4323 17.0831 37.4328C17.0832 37.4331 17.0833 37.4333 17.0833 37.4335C17.0834 37.4337 17.0834 37.4339 18.0405 37.1439ZM18.123 37.4601L19.0906 37.2075L19.008 36.8913L18.0405 37.1439L17.0729 37.3964L17.1554 37.7126L18.123 37.4601ZM18.123 37.4601L17.1395 37.2791L16.0328 43.2944L17.0163 43.4753L17.9998 43.6563L19.1065 37.641L18.123 37.4601ZM17.0163 43.4753L16.0328 43.2944C15.4276 46.5839 17.6117 49.739 20.9037 50.3446L21.0847 49.3612L21.2656 48.3777C19.0549 47.9709 17.5954 45.8545 17.9998 43.6563L17.0163 43.4753ZM21.0847 49.3612L20.9037 50.3446C24.1957 50.9503 27.3597 48.7792 27.9649 45.4896L26.9814 45.3087L25.9979 45.1277C25.5935 47.326 23.4762 48.7844 21.2656 48.3777L21.0847 49.3612ZM26.9814 45.3087L27.9649 45.4896L28.9215 40.2904L27.938 40.1095L26.9545 39.9285L25.9979 45.1277L26.9814 45.3087ZM27.938 40.1095C27.5584 41.0346 27.5588 41.0348 27.5592 41.035C27.5594 41.035 27.5599 41.0352 27.5603 41.0354C27.561 41.0357 27.5618 41.036 27.5628 41.0364C27.5647 41.0372 27.567 41.0381 27.5698 41.0392C27.5753 41.0415 27.5825 41.0443 27.5913 41.0478C27.609 41.0548 27.6333 41.0642 27.6637 41.0757C27.7246 41.0986 27.8104 41.1298 27.9179 41.1663C28.1327 41.2391 28.4365 41.3334 28.8039 41.4239C29.5313 41.6033 30.544 41.7769 31.6246 41.7192C32.7071 41.6615 33.9143 41.3677 34.9555 40.5568C36.0105 39.7351 36.7921 38.4628 37.1521 36.6443L36.1711 36.4501L35.1901 36.2559C34.9059 37.6918 34.3362 38.5041 33.7266 38.9789C33.1033 39.4643 32.3327 39.6786 31.518 39.7221C30.7014 39.7656 29.8975 39.6337 29.2825 39.4821C28.9787 39.4072 28.7299 39.3297 28.5599 39.2721C28.475 39.2434 28.4103 39.2197 28.3688 39.2041C28.3481 39.1963 28.3332 39.1905 28.3245 39.1871C28.3202 39.1854 28.3174 39.1842 28.3162 39.1838C28.3157 39.1835 28.3155 39.1835 28.3157 39.1835C28.3158 39.1836 28.316 39.1837 28.3163 39.1838C28.3165 39.1839 28.3168 39.184 28.3169 39.184C28.3172 39.1842 28.3176 39.1843 27.938 40.1095ZM36.1711 36.4501L37.1521 36.6443C37.7141 33.8053 38.0612 31.0963 37.6804 27.7926L36.687 27.9071L35.6936 28.0216C36.041 31.0356 35.7325 33.5163 35.1902 36.2559L36.1711 36.4501ZM36.687 27.9071L37.6805 27.7927C37.4284 25.6041 36.8927 23.4204 35.3495 21.7096L34.6069 22.3794L33.8644 23.0492C34.9832 24.2895 35.4561 25.9592 35.6936 28.0215L36.687 27.9071ZM27.8023 17.4565L27.5433 18.4224C31.2025 19.404 33.2128 22.0775 33.7709 22.928L34.6069 22.3794L35.443 21.8307C34.7748 20.8124 32.415 17.6585 28.0614 16.4907L27.8023 17.4565ZM16.8538 22.5186L17.7777 22.9011C18.4576 21.2592 19.9628 19.8836 21.8262 19.0424C23.6885 18.2018 25.7873 17.9513 27.5433 18.4224L27.8023 17.4565L28.0614 16.4907C25.7805 15.8788 23.2057 16.2254 21.0034 17.2195C18.8022 18.2132 16.8516 19.9101 15.9299 22.136L16.8538 22.5186Z" fill="#000716"/>
<path d="M27.9379 40.1118C27.9379 40.1118 25.6198 39.3134 23.6421 38.102C23.4706 37.9969 23.2906 38.2211 23.4288 38.3654L27.4808 42.5964L27.9383 40.1097" fill="#000716"/>
<path d="M27.9379 40.1118C27.9379 40.1118 25.6198 39.3134 23.6421 38.102C23.4706 37.9969 23.2906 38.2211 23.4288 38.3654L27.4808 42.5964L27.9383 40.1097" stroke="#000716" stroke-width="2" stroke-linecap="round" stroke-linejoin="round"/>
<g clip-path="url(#clip1_93_12511)">
<path d="M28.6618 29.9991C28.6592 30.1457 28.7107 30.2778 28.7955 30.3682C28.8536 30.4018 28.9215 30.4302 29.0008 30.4448C29.0802 30.4593 29.1536 30.4571 29.22 30.4464C29.357 30.3793 29.4687 30.2333 29.5029 30.0476C29.537 29.8613 29.4846 29.6845 29.3796 29.5731C29.3217 29.5398 29.2537 29.5133 29.1749 29.4987L29.0904 29.4881C29.0429 29.4855 28.998 29.4894 28.9559 29.4962C28.8185 29.563 28.7064 29.7088 28.6721 29.8947L28.6618 29.9991Z" fill="#000716" stroke="#000716" stroke-width="2"/>
<path d="M33.6472 29.8306C33.6446 29.9772 33.6961 30.1094 33.7808 30.1998C33.8389 30.2333 33.9069 30.2617 33.9862 30.2763C34.0656 30.2909 34.139 30.2886 34.2053 30.2779C34.3424 30.2108 34.454 30.0648 34.4882 29.8791C34.5224 29.6928 34.47 29.516 34.365 29.4047C34.3071 29.3714 34.239 29.3448 34.1602 29.3303L34.0758 29.3197C34.0282 29.3171 33.9833 29.321 33.9413 29.3277C33.8039 29.3946 33.6917 29.5404 33.6574 29.7263L33.6472 29.8306Z" fill="#000716" stroke="#000716" stroke-width="2"/>
<path d="M31.3132 28.0716C31.6378 29.3119 31.8197 30.5151 33.2478 31.9324C33.5538 32.2374 33.2911 32.7815 32.8738 32.8928L32.0148 33.1196" stroke="#000716" stroke-width="2" stroke-linecap="square" stroke-linejoin="round"/>
<path d="M31.7598 35.3627C31.7598 35.3627 29.4829 35.2595 28.2406 33.3271" stroke="#000716" stroke-width="2" stroke-linecap="square" stroke-linejoin="round"/>
</g>
<path d="M22.0333 31.072C20.288 29.3519 20.3666 28.1469 20.6445 27.5083C20.8293 27.0818 21.2466 26.7931 21.7119 26.762C22.278 26.7256 22.8579 26.9793 23.2465 27.4357C24.1329 28.4744 24.2109 29.6888 24.2109 29.6888" fill="#885E4D"/>
<path d="M22.0333 31.072C20.288 29.3519 20.3666 28.1469 20.6445 27.5083C20.8293 27.0818 21.2466 26.7931 21.7119 26.762C22.278 26.7256 22.8579 26.9793 23.2465 27.4357C24.1329 28.4744 24.2109 29.6888 24.2109 29.6888" stroke="#000716" stroke-width="2" stroke-linecap="square" stroke-linejoin="round"/>
</g>
<path d="M51.7695 51.2012V48.1052H49.681V51.2012H46.585V53.2897H49.681V56.3857H51.7695V53.2897H54.8654V51.2012H51.7695Z" fill="#80A1FF" stroke="#000716" stroke-width="2" stroke-linejoin="round"/>
<path d="M59.7127 58.4177C60.0098 57.6454 60.7522 57.1357 61.5798 57.1357C74.9344 57.1357 83.1785 57.1357 96.1495 57.1357C97.553 57.1357 98.5216 58.5438 98.0177 59.8538L89.0918 83.0585H50.2344L59.7127 58.4177Z" fill="#D1D5DB" stroke="#000716" stroke-width="2"/>
</g>
<defs>
<clipPath id="clip0_93_12511">
<rect width="48.3079" height="47.0797" fill="white" transform="translate(-1.31348 5.16577)"/>
</clipPath>
<clipPath id="clip1_93_12511">
<rect width="14.738" height="10.2347" fill="white" transform="translate(24.877 25.6387) rotate(10.4246)"/>
</clipPath>
</defs>
</svg>
