<svg width="50" height="70" viewBox="0 0 50 70" fill="none" xmlns="http://www.w3.org/2000/svg">
<mask id="mask0_93_12512" style="mask-type:alpha" maskUnits="userSpaceOnUse" x="0" y="10" width="50" height="50">
<circle cx="25" cy="35" r="24.5" fill="#D9D9D9" stroke="#D91515"/>
</mask>
<g mask="url(#mask0_93_12512)">
<rect width="195.312" height="238.281" transform="translate(-65.7588 -49.5928)" fill="#B5D6F4"/>
<path d="M39.6709 59.6304H51.3421C54.5436 59.6304 57.6933 58.8214 60.4985 57.2785L76.6562 48.3918L70.7304 38.9922L53.5659 48.3918L42.123 47.5744C42.123 47.5744 30.067 46.5527 27.6149 46.5527" fill="#FF9847"/>
<path d="M39.6709 59.6304H51.3421C54.5436 59.6304 57.6933 58.8214 60.4985 57.2785L76.6562 48.3918L70.7304 38.9922L53.5659 48.3918L42.123 47.5744C42.123 47.5744 30.067 46.5527 27.6149 46.5527" stroke="#000716" stroke-width="2" stroke-linecap="round" stroke-linejoin="round"/>
<path d="M7.60722 89.123C7.00485 89.123 7.2618 88.2562 7.37674 87.6809C9.56601 74.4559 9.95925 64.9633 10.8596 55.4553C11.3385 50.4051 15.6701 47.1658 20.8722 47.1658H31.0636C36.2615 47.1658 39.9226 50.4285 40.6676 55.4425C42.2342 65.9844 42.0481 74.0091 44.1034 88.1724C44.2311 88.7391 44.2073 89.3077 43.6135 89.3077L7.60722 89.123Z" fill="#FF9847"/>
<path d="M40.6918 57.9137C42.1668 68.2712 42.5495 77.6121 44.4289 91.5157C44.5567 92.0868 44.2055 92.6408 43.6116 92.6408L7.60748 92.3245C7.00511 92.3245 6.68157 91.7641 6.79438 91.1846C9.31669 78.1506 9.84464 64.5864 10.8599 54.2356" fill="#FF9847"/>
<path d="M40.6918 57.9137C42.1668 68.2712 42.5495 77.6121 44.4289 91.5157C44.5567 92.0868 44.2055 92.6408 43.6116 92.6408L7.60748 92.3245C7.00511 92.3245 6.68157 91.7641 6.79438 91.1846C9.31669 78.1506 9.84464 64.5864 10.8599 54.2356" stroke="#000716" stroke-width="2" stroke-linecap="round" stroke-linejoin="round"/>
<path d="M11.4707 63.3085L6.50554 67.8842C2.99711 71.1175 -1.59934 72.9125 -6.3704 72.9125H-21.2236L-21.2236 61.8782H-4.26345L2.58593 55.5625C8.34486 50.2523 15.6932 46.5527 23.5267 46.5527" fill="#FF9847"/>
<path d="M11.4707 63.3085L6.50554 67.8842C2.99711 71.1175 -1.59934 72.9125 -6.3704 72.9125H-21.2236L-21.2236 61.8782H-4.26345L2.58593 55.5625C8.34486 50.2523 15.6932 46.5527 23.5267 46.5527" stroke="#000716" stroke-width="2" stroke-linecap="round" stroke-linejoin="round"/>
<g clip-path="url(#clip0_93_12512)">
<path d="M32.3826 45.7977L31.1642 40.8114C31.2184 40.8007 32.0677 40.5953 32.1241 40.5832C34.2209 40.1328 37.7279 38.6897 36.6684 34.0856C36.031 31.3217 35.2691 28.8238 33.6472 26.0943C31.6617 22.7553 29.1628 20.3621 23.6485 21.7095C19.472 22.7469 16.093 27.2032 17.1125 31.3757L21.2984 48.5061C21.959 51.2097 25.1117 52.7658 27.8232 52.1032C30.5347 51.4407 33.0432 48.5012 32.3826 45.7977Z" fill="#D6AA8A" stroke="#000716" stroke-width="2" stroke-linecap="round" stroke-linejoin="round"/>
<path d="M31.5313 42.7141C31.5313 42.7141 26.2344 37.0289 23.9404 36.7312C23.7403 36.7044 24.8805 41.6916 28.8188 43.7881L32.1679 45.4521L31.5313 42.7141Z" fill="#000716" stroke="#000716" stroke-width="2" stroke-linecap="round" stroke-linejoin="round"/>
<g clip-path="url(#clip1_93_12512)">
<path d="M27.6988 31.5961C27.4727 31.6514 27.2343 31.4709 27.1664 31.193C27.0985 30.9151 27.2268 30.645 27.4529 30.5898C27.679 30.5345 27.9174 30.715 27.9853 30.9929C28.0532 31.2708 27.9249 31.5409 27.6988 31.5961Z" fill="#000716"/>
<path d="M32.1695 29.4064C31.9434 29.4617 31.7051 29.2812 31.6371 29.0033C31.5692 28.7254 31.6975 28.4553 31.9236 28.4001C32.1497 28.3448 32.3881 28.5253 32.456 28.8032C32.5239 29.0811 32.3956 29.3512 32.1695 29.4064Z" fill="#000716"/>
<path d="M28.8253 28.4534C29.6277 29.4505 30.2849 30.4721 32.1647 31.1797C32.568 31.3325 32.5509 31.9354 32.2164 32.2073L31.5266 32.7648" stroke="#000716" stroke-width="2" stroke-linecap="square" stroke-linejoin="round"/>
</g>
<path d="M32.1301 22.6178C32.5743 21.5287 31.9979 20.3392 31.2338 19.4451C30.8868 19.0391 30.4316 18.74 29.9212 18.5826L28.2375 18.0637C27.7355 17.9089 27.27 17.6546 26.8685 17.3158C25.9147 16.5109 24.6336 16.2101 23.4212 16.5063L22.6425 16.6966C22.1508 16.8167 21.6449 16.8682 21.1391 16.8496L20.2897 16.8184C18.9387 16.7686 17.6338 17.3133 16.719 18.3087L16.2442 18.8254C15.8683 19.2344 15.3797 19.523 14.8401 19.6549C13.6728 19.9401 12.8154 20.935 12.7056 22.1315L12.6914 22.2865C12.6341 22.9108 12.3847 23.5021 11.9775 23.9788L11.6126 24.406C10.6477 25.5357 10.5784 27.1469 11.2349 28.4798C11.4803 28.9778 11.6612 29.4353 11.6534 29.689C11.6298 30.4533 11.0534 30.677 11.296 31.6695C11.5385 32.662 13.369 33.2665 13.369 33.2665C12.8175 34.453 13.7965 36.738 15.7815 36.2529C15.5256 37.7879 16.901 39.1346 17.7486 39.1379C18.3836 40.8759 20.4611 41.6303 20.4611 41.6303C20.4611 41.6303 22.062 37.8735 21.3785 34.2542C21.3785 34.2542 23.0874 32.1833 23.1393 31.9308C24.1177 30.5979 24.5219 25.7944 24.1092 24.1915C24.6047 26.0813 28.8741 25.6481 28.0901 23.4038C28.293 24.0274 29.1745 24.7767 29.9681 24.5827C30.9606 24.3402 31.1151 23.2507 31.1151 23.2507C31.6306 23.4073 31.942 23.0788 32.1301 22.6178Z" fill="#232F3E" stroke="#000716" stroke-width="2" stroke-miterlimit="10" stroke-linejoin="round"/>
<path d="M31.2388 43.293C26.7873 43.7526 23.5511 38.0775 23.5182 35.2134C23.4938 33.0811 22.545 32.0726 22.0617 31.6964L22.7878 30.1576C25.9813 35.421 30.1329 33.2147 31.7854 33.0441C35.0156 31.0264 35.6139 30.2972 35.6139 30.2972C35.6139 30.2972 38.3477 35.672 37.759 38.1454C36.9126 41.7009 36.5418 42.7455 31.2388 43.293Z" fill="#232F3E"/>
<path d="M21.5975 34.965C19.3051 34.1113 18.8844 32.9816 18.8767 32.2864C18.8707 31.8224 19.1329 31.389 19.5441 31.1705C20.0448 30.9061 20.6766 30.9004 21.217 31.1573C22.4488 31.7413 23.0158 32.8156 23.0158 32.8156" fill="#D6AA8A"/>
<path d="M21.5975 34.965C19.3051 34.1113 18.8844 32.9816 18.8767 32.2864C18.8707 31.8224 19.1329 31.389 19.5441 31.1705C20.0448 30.9061 20.6766 30.9004 21.217 31.1573C22.4488 31.7413 23.0158 32.8156 23.0158 32.8156" stroke="#000716" stroke-width="2" stroke-linecap="square" stroke-linejoin="round"/>
<path d="M33.3523 37.9833C31.495 38.8279 29.4152 37.1116 28.6074 36.1479L34.4741 33.4689C34.874 34.6218 35.2095 37.1388 33.3523 37.9833Z" fill="#D6AA8A"/>
<path d="M34.318 33.3882C34.318 33.3882 31.5121 35.3014 28.4518 36.12Z" stroke="#000716" stroke-width="2" stroke-linecap="square" stroke-linejoin="round"/>
<path d="M33.5466 35.7197C33.5466 35.7197 32.6678 36.5987 31.1074 36.6334" stroke="#000716" stroke-width="2" stroke-linecap="square" stroke-linejoin="round"/>
<path d="M23.9688 29.4253C23.6989 30.4677 23.4769 30.9871 23.6048 31.1509C26.8431 35.298 30.5022 33.2507 31.6833 32.7391C35.1359 31.2436 35.4943 29.8895 35.4943 29.8895C35.4943 29.8895 38.1631 34.4792 37.691 38.3821C37.4824 40.1056 37.7267 42.1309 32.5495 43.2883C28.9971 44.0825 23.9145 40.505 23.7003 35.5235C23.6742 33.2497 22.5193 32.0464 22.0039 31.6452" stroke="#000716" stroke-width="2" stroke-linejoin="round"/>
</g>
<mask id="mask1_93_12512" style="mask-type:alpha" maskUnits="userSpaceOnUse" x="-46" y="-14" width="137" height="64">
<path d="M-6.55176 32.8298L-15.3779 49.7664L-45.2754 34.1873L-36.4502 17.2507L-6.55176 32.8298ZM90.1162 7.03979L72.2949 35.6589L45.5869 19.0271L63.4072 -9.59106L90.1162 7.03979ZM32.7148 19.3582L2.06152 26.4509L-5.53809 -6.39478L25.1152 -13.4875L32.7148 19.3582Z" fill="#FF0000"/>
</mask>
<g mask="url(#mask1_93_12512)">
<circle cx="30.3282" cy="69.4976" r="70.5049" stroke="#FF9847" stroke-width="2"/>
</g>
<path d="M41.5011 -5.36473C45.5306 -5.36473 48.7971 -2.09819 48.7971 1.93128C48.7971 5.96076 45.5306 9.22729 41.5011 9.22729C37.4716 9.22729 34.2051 5.96076 34.2051 1.93128C34.2051 -2.09819 37.4716 -5.36473 41.5011 -5.36473Z" stroke="#000716" stroke-width="2" stroke-linejoin="round"/>
<path d="M41.501 12.5356C41.9989 12.5356 42.4212 12.1692 42.4912 11.6763L43.5781 4.00928L51.2461 2.92139C51.7389 2.8513 52.1053 2.42985 52.1055 1.93213C52.1055 1.43422 51.739 1.01199 51.2461 0.941895L43.5781 -0.14502L42.4912 -7.81299C42.4211 -8.3059 41.9989 -8.67236 41.501 -8.67236C41.0033 -8.67216 40.5818 -8.30575 40.5117 -7.81299L39.4238 -0.14502L31.7568 0.941895C31.2639 1.01193 30.8975 1.43417 30.8975 1.93213C30.8977 2.4299 31.264 2.85136 31.7568 2.92139L39.4238 4.00928L40.5117 11.6763L40.5283 11.7671C40.6341 12.2135 41.0343 12.5355 41.501 12.5356Z" fill="#B5D6F4" stroke="#000716" stroke-width="2" stroke-linejoin="round"/>
<line y1="-1" x2="27.7405" y2="-1" transform="matrix(-0.218806 -0.975768 -0.979931 0.199339 26.2754 73.7285)" stroke="#000716" stroke-width="2"/>
<line y1="-1" x2="27.7405" y2="-1" transform="matrix(0.218806 -0.975768 0.979931 0.199339 27.0469 73.7288)" stroke="#000716" stroke-width="2"/>
</g>
<defs>
<clipPath id="clip0_93_12512">
<rect width="48.224" height="46.998" fill="white" transform="translate(-0.0478516 11.2507) rotate(-5.89483)"/>
</clipPath>
<clipPath id="clip1_93_12512">
<rect width="14.7124" height="10.217" fill="white" transform="translate(21.9697 28.8667) rotate(-13.7312)"/>
</clipPath>
</defs>
</svg>
