<svg width="50" height="70" viewBox="0 0 50 70" fill="none" xmlns="http://www.w3.org/2000/svg">
<mask id="mask0_93_12510" style="mask-type:alpha" maskUnits="userSpaceOnUse" x="0" y="10" width="50" height="50">
<circle cx="25" cy="35" r="24.5" fill="#D9D9D9" stroke="#D91515"/>
</mask>
<g mask="url(#mask0_93_12510)">
<rect width="195.312" height="238.281" transform="translate(-90.8896 -29.7349)" fill="#B5D6F4"/>
<path d="M26.7976 48.8324C26.26 49.159 3.32414 40.5328 -9.52773 88.2778C-24.8014 134.976 -50.0181 144.949 -52.2663 144.436C-52.2663 144.436 2.31518 166.65 44.9613 153.383L35.5296 50.6948L26.7976 48.8324Z" fill="#EA7158" stroke="#000716" stroke-width="2" stroke-linejoin="round"/>
<path d="M42.6855 92.8975C43.3324 92.8975 43.6755 92.342 43.5452 91.7477C42.1253 83.2166 39.4158 68.4929 39.4158 68.4929L41.1787 63.3726C41.8257 61.4519 41.7823 59.3202 41.005 57.4426L39.0684 52.7099C37.692 48.4853 34.1662 45.3545 29.4332 45.3545H18.7255C13.2631 45.3545 9.13374 49.5102 8.61702 54.7985C7.67044 64.7377 6.68043 77.7561 3.92752 91.5323C3.79725 92.1309 4.14462 92.7252 4.78726 92.7252L42.6768 92.8975H42.6855Z" fill="#A33F22"/>
<path d="M8.62591 52.6624C7.59248 63.4543 6.60672 78.1435 3.93631 91.7475C3.80604 92.3461 4.15341 92.9404 4.79605 92.9404L42.6856 93.2806C43.3325 93.2806 43.6756 92.682 43.5453 92.0877L39.416 68.2689L40.2323 66.1802C41.7825 62.2571 42.5917 59.4614 40.5726 55.7062" stroke="#000716" stroke-width="2" stroke-linecap="round" stroke-linejoin="round"/>
<path d="M50.7955 54.6134L50.1442 56.5512L61.5336 59.9898L61.9678 58.9132C61.5308 57.3854 60.1545 55.9553 56.8282 54.8518C53.5019 53.7484 51.3526 54.222 50.7955 54.6134Z" fill="#000716" stroke="#000716" stroke-width="2" stroke-linejoin="round"/>
<path d="M53.4126 54.6474L52.6671 55.5558C51.9216 56.4642 51.7044 57.7117 52.1585 58.7943C52.7005 60.0914 53.5453 61.1408 55.2672 61.3975C57.7737 61.7692 59.4061 60.7519 60.2102 58.0997C60.4856 57.1892 60.5937 56.2415 60.5906 55.2923L60.5826 53.0556C60.4682 51.6793 59.8096 50.1936 59.4664 49.3852L59.1329 46.3192L58.8277 42.4133C58.7277 41.875 58.5171 41.2153 57.8666 41.2449C57.2358 41.3191 57.3476 41.3903 57.3535 41.8596L57.2671 40.8734C57.1418 40.293 56.983 39.6672 56.2369 39.6319C55.5523 39.7362 55.8656 40.4312 55.8937 41.0572L55.735 40.0059C55.588 39.3385 55.2341 38.9236 54.5655 39.011C54.0247 39.1525 53.9651 39.5872 53.9651 39.5872C53.9651 39.5872 54.0419 39.9361 53.9442 39.912C53.4361 39.7934 52.9002 40.0525 52.7047 40.5362C52.5401 40.9533 52.4858 41.4455 52.4786 41.771L51.9669 48.0189C51.9841 48.5898 52.0753 48.8194 52.2061 49.3742C52.562 50.9182 53.2997 54.118 53.415 54.6529L53.4126 54.6474Z" fill="#B78159" stroke="#000716" stroke-width="2" stroke-linecap="round" stroke-linejoin="round"/>
<path d="M54.8559 48.5069L54.6077 40.9235C54.6077 40.9235 54.6443 40.11 54.0932 39.9469" stroke="#000716" stroke-width="2" stroke-linecap="square" stroke-linejoin="round"/>
<path d="M60.5821 53.2355L60.4367 52.245C60.2956 51.2792 59.8185 50.3494 59.1716 49.5665C58.7329 49.0356 58.179 48.6078 57.563 48.2901L57.0044 48.004L55.7394 45.6678C55.3065 44.9217 54.5171 44.606 53.5695 44.9042C53.2284 45.0122 52.9678 45.3181 52.9576 45.6748C52.9553 45.7988 52.9773 45.9322 53.054 46.0452L54.7546 49.1562C55.1327 49.7932 55.4864 51.2484 55.4662 51.2406" fill="#B78159"/>
<path d="M60.5821 53.2355L60.4367 52.245C60.2956 51.2792 59.8185 50.3494 59.1716 49.5665C58.7329 49.0356 58.179 48.6078 57.563 48.2901L57.0044 48.004L55.7394 45.6678C55.3065 44.9217 54.5171 44.606 53.5695 44.9042C53.2284 45.0122 52.9678 45.3181 52.9576 45.6748C52.9553 45.7988 52.9773 45.9322 53.054 46.0452L54.7546 49.1562C55.1327 49.7932 55.4864 51.2484 55.4662 51.2406" stroke="#000716" stroke-width="2" stroke-linecap="round" stroke-linejoin="round"/>
<path d="M35.1629 58.7044C39.7658 70.7464 56.7344 70.9609 61.8672 59.135L50.7947 54.8286L48.1895 61.0729C44.4347 51.8963 36.0493 44.9824 26.1455 44.5086C25.935 44.4985 25.7552 44.4932 25.6102 44.4932" fill="#A33F22"/>
<path d="M35.1629 58.7044C39.7658 70.7464 56.7344 70.9609 61.8672 59.135L50.7947 54.8286L48.1895 61.0729C44.4347 51.8963 36.0493 44.9824 26.1455 44.5086C25.935 44.4985 25.7552 44.4932 25.6102 44.4932" stroke="#000716" stroke-width="2" stroke-linecap="round" stroke-linejoin="round"/>
<path d="M49.3345 61.0164C49.541 60.5042 49.2933 59.9215 48.7811 59.7149C48.2689 59.5083 47.6862 59.7561 47.4796 60.2683L48.407 60.6423L49.3345 61.0164ZM48.407 60.6423L47.4796 60.2683L44.8743 66.7279L45.8018 67.102L46.7292 67.476L49.3345 61.0164L48.407 60.6423Z" fill="#000716"/>
<path d="M8.89341 62.3649L3.26455 67.5096C-0.23724 70.7102 -4.80971 72.485 -9.55381 72.485H-25.8437L-25.8438 60.8576H-7.82382L-0.581824 54.2348C5.56171 48.6166 13.3776 44.7085 21.7027 44.7085" fill="#A33F22"/>
<path d="M8.89341 62.3649L3.26455 67.5096C-0.23724 70.7102 -4.80971 72.485 -9.55381 72.485H-25.8437L-25.8438 60.8576H-7.82382L-0.581824 54.2348C5.56171 48.6166 13.3776 44.7085 21.7027 44.7085" stroke="#000716" stroke-width="2" stroke-linecap="round" stroke-linejoin="round"/>
<path d="M24.9255 53.106L23.1798 53.106C19.198 53.106 15.791 50.2468 15.1001 46.3254C14.7449 44.3093 16.6494 42.6321 18.6045 43.2392L23.9775 44.908C24.593 45.0992 25.2538 45.087 25.862 44.8733L30.4685 43.2543C32.2616 42.6242 34.1067 44.0572 33.9399 45.9505C33.5831 50 30.1916 53.106 26.1264 53.106L24.9255 53.106Z" fill="#EA7158" stroke="#000716" stroke-width="2"/>
<path d="M29.8446 46.3587V40.7977C29.8446 40.7977 37.6356 42.424 37.7306 35.4448C37.7713 32.4541 37.6152 29.7072 36.6292 26.5084C35.4216 22.5894 33.4427 19.5159 27.4135 19.5159C22.8407 19.5338 19.0978 23.2493 19.0978 27.7745V46.3587C19.0978 49.2935 21.5041 51.6735 24.4712 51.6735C27.4383 51.6735 29.8446 49.2935 29.8446 46.3587V46.3587Z" fill="#B78159" stroke="#000716" stroke-width="2" stroke-linecap="round" stroke-linejoin="round"/>
<path d="M29.8447 40.7999C29.8447 40.7999 27.2734 40.4152 24.9779 39.5383C24.7789 39.4623 24.6342 39.7285 24.806 39.8515L29.8447 43.4574V40.7977" fill="#000716"/>
<path d="M29.8447 40.7999C29.8447 40.7999 27.2734 40.4152 24.9779 39.5383C24.7789 39.4623 24.6342 39.7285 24.806 39.8515L29.8447 43.4574V40.7977" stroke="#000716" stroke-width="2" stroke-linecap="round" stroke-linejoin="round"/>
<g clip-path="url(#clip0_93_12510)">
<path d="M29.0981 30.6331C28.8508 30.6331 28.6503 30.3887 28.6503 30.0873C28.6503 29.7859 28.8508 29.5415 29.0981 29.5415C29.3454 29.5415 29.5459 29.7859 29.5459 30.0873C29.5459 30.3887 29.3454 30.6331 29.0981 30.6331Z" fill="#000716"/>
<path d="M34.2651 29.5101C34.0178 29.5101 33.8173 29.2657 33.8173 28.9643C33.8173 28.6628 34.0178 28.4185 34.2651 28.4185C34.5124 28.4185 34.7129 28.6628 34.7129 28.9643C34.7129 29.2657 34.5124 29.5101 34.2651 29.5101Z" fill="#000716"/>
<path d="M31.0542 27.6982C31.6309 28.9196 32.0516 30.1298 33.8133 31.3243C34.191 31.5815 34.0214 32.1944 33.6075 32.389L32.7549 32.7872" stroke="#000716" stroke-width="2" stroke-linecap="square" stroke-linejoin="round"/>
<path d="M32.7172 34.6192C32.7172 34.6192 30.8687 34.4355 29.3016 33.7271Z" stroke="#000716" stroke-width="2" stroke-linecap="square" stroke-linejoin="round"/>
</g>
<path d="M21.0518 28.9898L21.9202 31.7889L21.1603 33.0809L21.6672 34.3737C21.829 34.7863 21.8182 35.2464 21.6372 35.6503C21.3013 36.3998 21.5687 37.2829 22.2642 37.7219L22.3392 37.7692C22.9928 38.1817 23.3 38.973 23.0953 39.7173L22.7886 40.8325L22.9376 41.0934C23.5557 42.1759 22.5523 43.4612 21.3523 43.1243C20.9902 43.0227 20.6027 43.0715 20.2776 43.2596L18.9993 43.9992C18.5065 44.2843 17.8884 44.2353 17.4457 43.8761L17.2593 43.7249C16.3526 42.9891 15.1215 42.7953 14.0343 43.2173L13.2151 43.5352C11.9076 44.0426 10.4418 43.3379 10.02 41.9993C9.82415 41.3778 9.88652 40.704 10.193 40.1298L11.0303 38.5612C11.4399 37.7939 11.5389 36.8879 11.3128 36.0471C10.998 34.8761 11.33 33.6109 12.19 32.758C12.8285 32.1248 13.1875 31.2627 13.1875 30.3629L13.1875 29.7974C13.1875 28.7161 13.6186 27.6802 14.3853 26.9188C15.015 26.2935 15.4142 25.4759 15.6503 24.6203C16.0085 23.3219 16.7516 21.3432 18.1809 19.9254C20.4299 17.6946 23.2455 16.9084 25.7194 16.7353C29.6611 16.4595 33.306 18.5237 36.2005 21.218C36.2005 21.218 37.7202 22.9406 36.8518 24.6632C36.3997 25.2661 35.2309 23.8213 34.6807 24.0172C33.6759 24.375 32.5901 24.5072 31.6412 24.0172C30.5855 23.472 29.1878 24.5274 28.3849 23.6515L27.7333 22.9406C27.7224 24.0067 27.5325 26.5314 26.1785 27.1942C25.3353 27.6055 24.695 29.62 23.6902 30.2817L23.0057 29.4204L21.0518 28.9898Z" fill="#232F3E" stroke="#000716" stroke-width="2" stroke-linecap="round" stroke-linejoin="round"/>
<path d="M21.9511 32.5712C19.8003 31.1239 19.6511 29.8623 19.8184 29.1487C19.9292 28.6723 20.3092 28.2942 20.7886 28.1735C21.3721 28.0281 22.0257 28.1802 22.5187 28.5783C23.6427 29.4843 23.957 30.7258 23.957 30.7258" fill="#B78159"/>
<path d="M21.9511 32.5712C19.8003 31.1239 19.6511 29.8623 19.8184 29.1487C19.9292 28.6723 20.3092 28.2942 20.7886 28.1735C21.3721 28.0281 22.0257 28.1802 22.5187 28.5783C23.6427 29.4843 23.957 30.7258 23.957 30.7258" stroke="#000716" stroke-width="2" stroke-linecap="square" stroke-linejoin="round"/>
<path d="M19.315 26.4062C21.4861 25.7603 23.3948 28.7243 23.657 29.8513C22.3544 27.4828 20.1531 27.7235 19.7491 29.2054C19.6135 29.703 19.9664 30.7126 20.4004 31.3586C20.6176 31.5739 21.7499 32.6639 21.486 32.4352C21.302 32.2758 19.7491 33.2965 18.8807 32.0046C18.3171 31.4695 17.9037 30.2818 17.7952 29.8513C17.4151 28.3441 18.0876 26.7713 19.315 26.4062Z" fill="#D1D5DB" stroke="#000716" stroke-width="2" stroke-linecap="round" stroke-linejoin="round"/>
</g>
<defs>
<clipPath id="clip0_93_12510">
<rect width="15.6317" height="10.7661" fill="white" transform="translate(23.874 26.4062)"/>
</clipPath>
</defs>
</svg>
